<?xml version="1.0" encoding="UTF-8"?>
<!DOCTYPE svg PUBLIC "-//W3C//DTD SVG 1.1//EN" "http://www.w3.org/Graphics/SVG/1.1/DTD/svg11.dtd">
<!-- Creator: CorelDRAW X8 -->
<svg xmlns="http://www.w3.org/2000/svg" xml:space="preserve" width="122.262mm" height="120.84mm" version="1.1" style="shape-rendering:geometricPrecision; text-rendering:geometricPrecision; image-rendering:optimizeQuality; fill-rule:evenodd; clip-rule:evenodd"
viewBox="0 0 14315 14149"
 xmlns:xlink="http://www.w3.org/1999/xlink">
 <defs>
  <style type="text/css">
   <![CDATA[
    .fil0 {fill:white}
   ]]>
  </style>
 </defs>
 <g id="Layer_x0020_1">
  <metadata id="CorelCorpID_0Corel-Layer"/>
  <path class="fil0" d="M0 7117c0,571 55,1011 152,1490 83,413 224,891 375,1236 282,644 724,1459 1215,1975 496,520 605,681 1245,1141 658,473 2063,1190 2805,1190 0,-927 159,-959 -544,-854 -226,34 -432,7 -647,-31 -839,-147 -910,-432 -1183,-984l-271 -473c-206,-273 -543,-460 -700,-756 326,-172 582,-68 905,148 304,203 335,461 837,960 531,530 1283,186 1572,162 38,-445 399,-838 403,-1022 -576,0 -1310,-291 -1772,-582 -479,-302 -867,-771 -1059,-1326 -360,-1043 -346,-2217 266,-3166 36,-56 154,-211 168,-267 27,-112 -112,-560 -112,-730 0,-236 132,-1146 279,-1146 549,0 1133,316 1485,528 402,241 166,247 727,135 915,-183 830,-137 1753,-137 303,0 616,70 870,121 468,95 375,152 741,-90 315,-209 976,-557 1486,-557 230,0 310,956 310,1146 0,305 -124,615 -124,712 0,145 81,60 238,352 367,685 444,888 444,1693 0,1025 -380,2220 -1252,2744 -453,273 -1300,558 -1815,601 24,104 65,143 118,223 141,212 254,482 254,768l0 1673c234,-5 896,-308 1084,-403 498,-250 942,-508 1370,-860l404 -339c2007,-1933 2845,-4804 1901,-7556 -246,-715 -771,-1709 -1282,-2280 -389,-433 -478,-502 -883,-883 -415,-391 -1152,-787 -1654,-1040 -1673,-844 -4233,-844 -5907,0 -1221,616 -1564,890 -2522,1907l-388 511c-75,100 -105,157 -171,262 -685,1090 -1121,2342 -1121,3804z"/>
 </g>
</svg>
