<?xml version="1.0" encoding="UTF-8"?>
<!DOCTYPE svg PUBLIC "-//W3C//DTD SVG 1.1//EN" "http://www.w3.org/Graphics/SVG/1.1/DTD/svg11.dtd">
<!-- Creator: CorelDRAW X8 -->
<svg xmlns="http://www.w3.org/2000/svg" xml:space="preserve" width="115.602mm" height="115.602mm" version="1.1" style="shape-rendering:geometricPrecision; text-rendering:geometricPrecision; image-rendering:optimizeQuality; fill-rule:evenodd; clip-rule:evenodd"
viewBox="0 0 3894 3894"
 xmlns:xlink="http://www.w3.org/1999/xlink">
 <defs>
  <style type="text/css">
   <![CDATA[
    .fil0 {fill:#E6E6E6}
   ]]>
  </style>
 </defs>
 <g id="Layer_x0020_1">
  <metadata id="CorelCorpID_0Corel-Layer"/>
  <g id="_2120316429456">
   <g>
    <path class="fil0" d="M327 2928l0 -1962c0,-346 293,-639 639,-639l1962 0c347,0 639,293 639,639l0 1962c0,347 -292,639 -639,639l-1962 0c-346,0 -639,-292 -639,-639zm-327 -2008l0 2054c0,225 136,505 314,660 12,11 18,19 30,30 128,120 396,230 576,230l2054 0c66,0 140,-18 196,-32 156,-38 291,-118 407,-225 65,-60 79,-75 137,-151 56,-75 123,-215 147,-310 14,-59 33,-134 33,-202l0 -2054c0,-156 -85,-385 -177,-507l-80 -95c-60,-66 -75,-80 -151,-138 -46,-34 -91,-57 -144,-84 -98,-49 -253,-96 -368,-96l-2054 0c-66,0 -140,18 -196,32 -121,30 -285,113 -376,194 -12,11 -18,20 -30,31l-88 87c-78,83 -168,259 -197,374 -14,59 -33,134 -33,202z"/>
    <path class="fil0" d="M1301 1955c0,-368 286,-654 654,-654 347,0 639,287 639,654 0,347 -288,639 -654,639 -347,0 -639,-293 -639,-639zm-327 -54c0,210 14,271 92,463 35,86 124,207 191,273l124 104c46,32 98,67 149,87 200,81 237,93 463,93 229,0 483,-126 645,-283 116,-115 210,-283 251,-441 75,-293 22,-565 -145,-811 -62,-92 -143,-167 -231,-233 -39,-30 -104,-69 -149,-87 -192,-78 -253,-92 -463,-92 -229,0 -484,122 -644,283l-104 124c-96,126 -179,349 -179,520z"/>
    <path class="fil0" d="M3248 890c0,-172 -198,-321 -388,-198 -35,23 -62,60 -82,101 -29,62 -27,153 8,216 9,17 30,44 42,57 10,11 37,31 52,39 153,90 368,-17 368,-215z"/>
   </g>
  </g>
 </g>
</svg>
